mtllib materials.mtl
v -0.6550848 0.111901 -0.1415505
v -0.7093449 0.111901 0.06094962
v -0.7093446 0.08190098 0.06094956
v -0.6550846 0.08190101 -0.1415504
v -0.6550855 0.111901 0.2634499
v -0.6550851 0.08190095 0.2634497
v -0.5068452 0.111901 0.4116906
v -0.5068451 0.08190098 0.4116902
v -0.3043452 0.111901 0.4659506
v -0.3043451 0.08190107 0.4659503
v -0.1018449 0.1119012 0.4116911
v -0.101845 0.08190113 0.4116908
v 0.04639585 0.1119012 0.2634509
v 0.04639552 0.08190113 0.2634506
v 0.1006557 0.1119012 0.06095076
v 0.1006555 0.08190116 0.06095064
v 0.04639639 0.1119011 -0.1415496
v 0.04639606 0.08190113 -0.1415493
v -0.1018438 0.1119011 -0.2897903
v -0.101844 0.08190104 -0.2897899
v -0.3043439 0.111901 -0.3440502
v -0.304344 0.08190101 -0.3440499
v -0.5068443 0.111901 -0.2897905
v -0.5068442 0.08190101 -0.2897904
v -0.304344 0.08190104 -0.3035504
v -0.4865944 0.08190101 -0.2547166
v -0.1220938 0.08190104 -0.2547164
v 0.01132242 0.08190104 -0.1213
v 0.06015579 0.08190113 0.06095064
v 0.01132191 0.08190113 0.2432007
v -0.1220949 0.08190113 0.3766171
v -0.3043451 0.08190098 0.4254506
v -0.4865953 0.08190098 0.3766165
v -0.6200115 0.08190098 0.2431999
v -0.668845 0.08190101 0.06094962
v -0.6200109 0.08190101 -0.1213005
v -0.3043441 0.101901 -0.2342952
v -0.4519669 0.101901 -0.1947399
v -0.1567215 0.101901 -0.1947397
v -0.04865425 0.101901 -0.08667243
v -0.009099204 0.1019011 0.06095052
v -0.04865469 0.1019011 0.2085732
v -0.1567222 0.1019011 0.3166405
v -0.304345 0.101901 0.3561956
v -0.4519677 0.101901 0.31664
v -0.5600348 0.101901 0.2085726
v -0.59959 0.101901 0.06094974
v -0.5600343 0.101901 -0.0866729
v -0.3043441 0.08190104 -0.2047709
v -0.4372046 0.08190101 -0.169171
v -0.1714837 0.08190104 -0.1691709
v -0.07422329 0.08190101 -0.07191014
v -0.03862365 0.08190107 0.0609504
v -0.07422362 0.08190107 0.1938109
v -0.1714844 0.08190107 0.2910714
v -0.304345 0.08190098 0.3266711
v -0.4372054 0.08190098 0.2910711
v -0.5344658 0.08190101 0.1938103
v -0.5700656 0.08190101 0.06094974
v -0.5344654 0.08190101 -0.07191062
v -0.3043441 0.101901 -0.1758074
v -0.4227229 0.101901 -0.1440878
v -0.1859655 0.101901 -0.1440877
v -0.0993064 0.101901 -0.05742836
v -0.06758717 0.1019011 0.0609504
v -0.09930672 0.1019011 0.179329
v -0.1859661 0.1019011 0.2659883
v -0.3043449 0.101901 0.2977076
v -0.4227236 0.101901 0.265988
v -0.5093826 0.101901 0.1793286
v -0.541102 0.101901 0.06094974
v -0.5093822 0.101901 -0.05742884
v -0.3043442 0.1019011 -0.1116462
v -0.3906424 0.1019011 -0.08852243
v -0.2180461 0.1019011 -0.08852255
v -0.1548717 0.1019011 -0.02534783
v -0.1317483 0.1019011 0.06095022
v -0.1548719 0.1019011 0.1472483
v -0.2180467 0.1019011 0.210423
v -0.3043448 0.1019011 0.2335464
v -0.3906428 0.1019011 0.2104227
v -0.4538173 0.1019011 0.147248
v -0.4769407 0.1019011 0.0609498
v -0.4538171 0.1019011 -0.02534807
v -0.3043442 0.1219012 -0.07885289
v -0.3742458 0.1219012 -0.06012273
v -0.2344428 0.1219012 -0.06012273
v -0.1832715 0.1219012 -0.008951187
v -0.1645416 0.1219012 0.06095022
v -0.1832717 0.1219012 0.1308517
v -0.2344432 0.1219012 0.1820231
v -0.3043447 0.1219012 0.2007531
v -0.3742461 0.1219012 0.1820229
v -0.4254175 0.1219012 0.1308515
v -0.4441475 0.1219012 0.06094986
v -0.4254173 0.1219012 -0.008951426
v 0.1006559 -0.1080996 0.06095022
v 0.04639591 -0.1080996 0.2634504
v 0.04639582 0.08190057 0.2634504
v 0.1006557 0.08190057 0.0609504
v -0.1018446 -0.1080996 0.4116908
v -0.1018446 0.08190057 0.4116908
v -0.3043448 -0.1080996 0.4659506
v -0.3043447 0.08190054 0.4659505
v -0.5068449 -0.1080997 0.4116911
v -0.5068447 0.08190051 0.4116907
v -0.6550851 -0.1080997 0.2634507
v -0.6550849 0.08190045 0.2634504
v -0.7093447 -0.1080997 0.06095052
v -0.7093446 0.08190042 0.06095028
v -0.6550847 -0.1080997 -0.1415497
v -0.6550847 0.08190042 -0.1415498
v -0.5068442 -0.1080997 -0.28979
v -0.5068443 0.08190042 -0.28979
v -0.3043441 -0.1080997 -0.3440499
v -0.3043443 0.08190045 -0.3440497
v -0.101844 -0.1080997 -0.2897902
v -0.1018443 0.08190051 -0.28979
v 0.04639636 -0.1080996 -0.1415497
v 0.04639609 0.08190054 -0.1415496
v -0.1018437 -0.1380995 -0.2897904
v 0.04639662 -0.1380995 -0.1415499
v 0.01132185 0.08190086 0.2432004
v 0.06015582 0.08190089 0.06095022
v -0.1220946 0.08190089 0.3766168
v -0.3043448 0.08190089 0.4254506
v -0.4865949 0.08190089 0.376617
v -0.6200111 0.08190078 0.2432007
v -0.6688447 0.08190081 0.0609504
v -0.6200107 0.08190078 -0.1212999
v -0.4865943 0.08190081 -0.2547162
v -0.3043441 0.08190081 -0.30355
v -0.1220941 0.08190089 -0.2547163
v 0.01132227 0.08190086 -0.1212999
v 0.01132185 -0.08809903 0.2432002
v 0.06015591 -0.08809882 0.06094992
v -0.1220947 -0.08809881 0.3766168
v -0.304345 -0.08809882 0.4254507
v -0.4865952 -0.08809882 0.3766171
v -0.6200114 -0.08809903 0.2432008
v -0.668845 -0.08809903 0.06095052
v -0.6200108 -0.08809903 -0.1213
v -0.4865943 -0.08809902 -0.2547164
v -0.304344 -0.08809903 -0.3035502
v -0.1220939 -0.08809882 -0.2547168
v 0.01132245 -0.08809903 -0.1213002
v -0.3043438 -0.1380995 -0.3440502
v -0.5068442 -0.1380997 -0.2897902
v -0.6550848 -0.1380998 -0.1415496
v -0.7093449 -0.1380998 0.06095076
v -0.6550853 -0.1380995 0.263451
v -0.5068451 -0.1380995 0.4116914
v -0.304345 -0.1380995 0.4659508
v -0.1018446 -0.1380995 0.411691
v 0.04639594 -0.1380995 0.2634504
v 0.1006561 -0.1380995 0.0609501
v 0.06572793 -0.09674782 0.2020457
v 0.06057214 -0.09675029 0.2213696
v 0.05996106 0.05324841 0.2212257
v 0.06511687 0.05325085 0.2019018
v 0.04640408 -0.0968315 0.1968899
v 0.04579302 0.05316719 0.1967461
v 0.04063721 0.05316472 0.2160699
v 0.04124828 -0.09683396 0.2162139
v 0.04966969 0.04824355 0.2598787
v 0.04958822 0.06824329 0.2598595
v 0.07536739 0.06825563 0.1632394
v 0.07544887 0.04825589 0.1632586
v 0.03034585 0.04815987 0.2547229
v 0.05612502 0.04817224 0.1581028
v 0.05604354 0.06817198 0.1580836
v 0.03026438 0.06815964 0.2547037
v 0.09198673 -0.0843789 0.1232993
v 0.08882719 -0.08414783 0.1430467
v 0.08877866 0.06584179 0.1412839
v 0.0919382 0.06561074 0.1215366
v 0.07223786 -0.08442241 0.1201401
v 0.07218933 0.0655672 0.1183773
v 0.06902979 0.06579828 0.1381247
v 0.06907833 -0.08419135 0.1398875
v 0.0888288 -0.08914736 0.1431056
v 0.08882234 -0.06914882 0.1428706
v 0.1046202 -0.07030413 0.04413295
v 0.1046266 -0.09030268 0.04436803
v 0.06907994 -0.08919089 0.1399464
v 0.08487776 -0.09034619 0.04120874
v 0.08487129 -0.07034765 0.04097378
v 0.06907347 -0.06919235 0.1397113
v 0.1046249 -0.0853031 0.04430938
v 0.1014654 -0.08507203 0.06405675
v 0.1014168 0.06491759 0.06229395
v 0.1045764 0.06468654 0.04254651
v 0.08487605 -0.08534661 0.04115009
v 0.08482751 0.06464303 0.03938723
v 0.08166797 0.06487408 0.05913472
v 0.08171651 -0.08511555 0.06089753
v 0.08677983 -0.08491898 -0.01774883
v 0.09186637 -0.08480817 0.001593113
v 0.08986846 0.06517816 0.001259327
v 0.08478191 0.06506735 -0.01808274
v 0.06743929 -0.08516526 -0.01266122
v 0.06544138 0.06482103 -0.01299512
v 0.07052793 0.06493184 0.006346822
v 0.07252583 -0.08505446 0.006680727
v 0.06643349 -0.0853622 -0.09511697
v 0.07152003 -0.08525139 -0.07577503
v 0.06952211 0.06473494 -0.07610893
v 0.06443557 0.06462413 -0.09545088
v 0.04709295 -0.08560848 -0.09002936
v 0.04509504 0.06437781 -0.09036326
v 0.05018158 0.06448862 -0.07102132
v 0.05217949 -0.08549768 -0.07068741
v 0.03708282 -0.08771452 -0.1547583
v 0.05099224 -0.08760208 -0.1403878
v 0.05112263 0.06239223 -0.1416878
v 0.03721322 0.06227979 -0.1560583
v 0.02271179 -0.08758149 -0.1408495
v 0.02284219 0.0624128 -0.1421494
v 0.03675161 0.06252527 -0.1277789
v 0.03662121 -0.08746904 -0.1264789
v -0.01855516 -0.0881643 -0.2122407
v -0.00464575 -0.08805186 -0.1978701
v -0.004515354 0.06194246 -0.1991701
v -0.01842477 0.06183001 -0.2135407
v -0.03292619 -0.08803126 -0.1983318
v -0.0327958 0.06196302 -0.1996318
v -0.01888638 0.0620755 -0.1852612
v -0.01901678 -0.08791882 -0.1839614
v 0.05110965 0.04739279 -0.1415576
v 0.05112704 0.06739193 -0.1417309
v -0.01842035 0.06682971 -0.2135841
v -0.01843774 0.04683053 -0.2134107
v 0.03673863 0.04752582 -0.1276487
v -0.03280877 0.04696357 -0.1995019
v -0.03279138 0.06696275 -0.1996752
v 0.03675598 0.06752497 -0.1278222
v 0.0510488 -0.0226045 -0.140951
v 0.05106619 -0.002605349 -0.1411244
v -0.01848119 -0.00316757 -0.2129775
v -0.01849858 -0.02316672 -0.2128042
v 0.03667778 -0.02247146 -0.1270422
v -0.03286961 -0.02303371 -0.1988953
v -0.03285223 -0.003034532 -0.1990687
v 0.03669513 -0.002472311 -0.1272156
v 0.06875151 -0.06674817 -0.09519196
v 0.07275307 -0.07754496 -0.07883918
v 0.08819509 0.04867703 0.0007193089
v 0.08419351 0.05947381 -0.01563346
v 0.04926437 -0.06718709 -0.09071326
v 0.06470639 0.05903488 -0.01115477
v 0.06870794 0.0482381 0.005198002
v 0.05326593 -0.07798389 -0.07436049
vn -0.9659254 -3.26342E-07 -0.2588204
vn -0.9659262 -1.313918E-05 0.2588173
vn -0.7071078 -1.216772E-05 0.7071056
vn -0.2588203 -1.380836E-05 0.9659255
vn 0.2588175 -1.034398E-07 0.9659262
vn 0.7071055 -1.228774E-05 0.707108
vn 0.9659255 1.243727E-08 0.2588201
vn 0.9659262 -1.165341E-05 -0.2588172
vn 0.7071078 -1.286972E-05 -0.7071056
vn 0.2588202 -1.45605E-05 -0.9659255
vn -0.2588176 -1.560247E-07 -0.9659262
vn -0.7071056 -3.191447E-07 -0.7071078
vn 0.1575001 0.7935267 0.5878001
vn 2.096451E-07 -1 1.881241E-08
vn -0.1575011 0.7935269 0.5877996
vn -0.4303004 0.7935264 0.4302993
vn -0.5878004 0.7935268 0.1574988
vn -0.5877989 0.7935275 -0.1575006
vn -0.430298 0.7935277 -0.4302992
vn -0.1575 0.7935272 -0.5877994
vn 0.157501 0.7935278 -0.5877984
vn 0.4302993 0.7935274 -0.4302981
vn 0.5877998 0.7935272 -0.1574992
vn 0.5877995 0.793527 0.1575013
vn 0.4302984 0.7935271 0.4303
vn -0.07413769 0.9580963 -0.2766859
vn 0.07413796 0.9580964 -0.2766856
vn 0.202548 0.9580964 -0.2025477
vn 0.276686 0.9580962 -0.07413771
vn 0.2766863 0.9580961 0.07413819
vn 0.2025481 0.9580962 0.2025488
vn 0.07413682 0.9580961 0.2766866
vn -0.07413827 0.9580962 0.2766861
vn -0.2025487 0.9580961 0.2025483
vn -0.2766864 0.9580961 0.07413752
vn -0.2766859 0.9580963 -0.07413822
vn -0.2025477 0.9580963 -0.2025483
vn 0.1486078 0.8187313 0.5546122
vn -0.148609 0.8187305 0.5546131
vn -0.4060043 0.8187317 0.4060036
vn -0.5546125 0.8187315 0.1486061
vn -0.5546128 0.8187308 -0.1486084
vn -0.406004 0.8187311 -0.4060049
vn -0.1486076 0.8187317 -0.5546117
vn 0.1486084 0.8187318 -0.5546111
vn 0.4060039 0.8187323 -0.4060027
vn 0.5546114 0.8187321 -0.148607
vn 0.5546114 0.8187317 0.148609
vn 0.4060025 0.8187321 0.4060045
vn -0.1505188 0.8135043 -0.5617427
vn 0.1505192 0.8135045 -0.5617423
vn 0.4112256 0.8135035 -0.4112242
vn 0.5617443 0.8135032 -0.1505185
vn 0.5617444 0.813503 0.1505196
vn 0.4112251 0.813503 0.411226
vn 0.1505175 0.8135032 0.5617445
vn -0.1505194 0.8135037 0.5617433
vn -0.4112251 0.8135042 0.4112238
vn -0.561742 0.8135049 0.1505179
vn -0.5617423 0.8135045 -0.1505198
vn -0.4112235 0.8135042 -0.4112251
vn -6.118385E-07 1 -1.93639E-06
vn 4.362033E-07 1 -1.833359E-06
vn 1.221434E-06 1 -1.295938E-06
vn 7.474038E-07 1 -5.960364E-07
vn 7.712464E-08 1 1.892609E-07
vn -2.582818E-07 1 -8.939912E-08
vn -4.267095E-07 1 9.856431E-07
vn -6.006814E-07 1 1.858782E-06
vn -1.470762E-06 1 1.440504E-06
vn -2.117017E-06 1 5.653347E-07
vn -1.946616E-06 1 -4.042952E-07
vn -1.457757E-06 1 -1.356776E-06
vn -0.1381795 0.8455583 -0.5156913
vn 0.1381796 0.8455586 -0.5156907
vn 0.3775124 0.8455586 -0.3775116
vn 0.5156915 0.8455584 -0.1381782
vn 0.5156912 0.8455584 0.1381796
vn 0.3775123 0.8455581 0.3775128
vn 0.1381785 0.8455585 0.5156913
vn -0.1381802 0.8455585 0.5156908
vn -0.3775125 0.8455584 0.3775119
vn -0.5156915 0.8455583 0.1381784
vn -0.5156909 0.8455584 -0.13818
vn -0.3775117 0.8455583 -0.3775129
vn -2.096451E-07 1 -1.881241E-08
vn 0.9659258 4.216207E-07 0.2588198
vn 0.7071067 2.09349E-07 0.7071069
vn 0.2588188 6.159813E-07 0.9659261
vn -0.2588188 2.031554E-06 0.9659262
vn -0.7071071 2.082005E-06 0.7071069
vn -0.9659263 1.172742E-06 0.2588186
vn -0.9659258 1.184781E-07 -0.2588199
vn -0.7071065 -4.395989E-07 -0.7071071
vn -0.2588194 5.89891E-07 -0.9659259
vn 0.2588196 8.234402E-07 -0.9659261
vn 0.7071072 1.417293E-06 -0.7071069
vn 0.9659262 1.440937E-06 -0.2588189
vn 0.7071074 1.292072E-05 -0.7071068
vn 7.851889E-06 1 2.055171E-06
vn 5.421094E-06 1 5.515888E-06
vn 2.247192E-06 1 8.35562E-06
vn -2.669308E-06 1 9.130252E-06
vn -7.005188E-06 1 6.271063E-06
vn -8.9954E-06 1 2.25235E-06
vn -9.003801E-06 1 -2.453512E-06
vn -6.525304E-06 1 -6.551681E-06
vn -2.505905E-06 1 -8.56922E-06
vn 2.01265E-06 1 -8.95654E-06
vn 6.416423E-06 1 -6.445912E-06
vn 8.057598E-06 1 -2.256336E-06
vn -0.9659258 1.186099E-07 -0.2588196
vn -0.7071065 7.514134E-07 -0.7071071
vn -0.2588192 -6.273198E-08 -0.9659259
vn 0.258819 -1.10636E-06 -0.9659262
vn 0.7071071 -2.072061E-06 -0.707107
vn 0.9659263 -2.088486E-06 -0.2588184
vn 0.9659257 -1.173945E-06 0.2588201
vn 0.7071066 -9.53963E-07 0.7071071
vn 0.2588189 -1.332581E-06 0.965926
vn -0.2588188 -2.566318E-06 0.9659263
vn -0.7071074 -2.502906E-06 0.7071068
vn -0.9659265 -1.259819E-06 0.258818
vn -1.748456E-07 1 -8.742279E-08
vn 0.2588195 1.028038E-05 -0.9659261
vn -0.2588195 3.553554E-06 -0.9659259
vn -0.7071063 1.202999E-06 -0.7071074
vn -0.9659257 4.051097E-06 -0.25882
vn -0.9659263 8.882531E-06 0.2588186
vn -0.7071074 1.26739E-05 0.7071067
vn -0.2588186 1.18763E-05 0.9659263
vn 0.2588189 5.292467E-06 0.9659261
vn 0.7071067 1.237707E-06 0.7071069
vn 0.9659257 3.9637E-06 0.2588201
vn 0.9659262 9.893837E-06 -0.2588187
vn 1.748456E-07 -1 8.742279E-08
vn 0.9661921 0.004183404 0.2577893
vn -0.9661921 -0.004183404 -0.2577893
vn 0.004073796 -0.9999912 0.0009593
vn -0.004073796 0.9999912 -0.0009593
vn 0.257791 0.0001233127 -0.9662007
vn -0.257791 -0.0001233127 0.9662007
vn 0.9661921 0.004183516 0.2577895
vn -0.9661921 -0.004183516 -0.2577895
vn -0.2577913 -0.0001233313 0.9662007
vn 0.2577913 0.0001233313 -0.9662007
vn 0.004073918 -0.9999913 0.0009593107
vn -0.004073918 0.9999913 -0.0009593107
vn 0.9874427 0.002176025 0.1579628
vn -0.9874427 -0.002176025 -0.1579628
vn 0.0003235553 -0.9999309 0.01175202
vn -0.0003235553 0.9999309 -0.01175202
vn 0.1579775 -0.01155334 -0.9873751
vn -0.1579775 0.01155334 0.9873751
vn 0.9874426 0.002176106 0.1579632
vn -0.9874426 -0.002176106 -0.1579632
vn -0.1579779 0.01155319 0.9873752
vn 0.1579779 -0.01155319 -0.9873752
vn 0.0003236756 -0.999931 0.01175189
vn -0.0003236756 0.999931 -0.01175189
vn 0.9874427 0.002176025 0.1579628
vn -0.9874427 -0.002176025 -0.1579628
vn 0.0003235553 -0.9999309 0.01175202
vn -0.0003235553 0.9999309 -0.01175202
vn 0.1579775 -0.01155334 -0.9873751
vn -0.1579775 0.01155334 0.9873751
vn 0.9670262 0.01231517 -0.2543788
vn -0.9670262 -0.01231517 0.2543788
vn 0.01331941 -0.9999088 0.002225711
vn -0.01331941 0.9999088 -0.002225711
vn -0.2543282 -0.005540497 -0.9671021
vn 0.2543282 0.005540497 0.9671021
vn 0.9670262 0.01231517 -0.2543788
vn -0.9670262 -0.01231517 0.2543788
vn 0.01331941 -0.9999088 0.002225711
vn -0.01331941 0.9999088 -0.002225711
vn -0.2543282 -0.005540497 -0.9671021
vn 0.2543282 0.005540497 0.9671021
vn 0.7185512 -0.006651571 -0.6954423
vn -0.7185512 0.006651571 0.6954423
vn -0.0008693147 -0.9999621 0.008665956
vn 0.0008693147 0.9999621 -0.008665956
vn -0.6954735 -0.005622375 -0.7185297
vn 0.6954735 0.005622375 0.7185297
vn 0.7185512 -0.006651571 -0.6954423
vn -0.7185512 0.006651571 0.6954423
vn -0.0008693147 -0.9999621 0.008665956
vn 0.0008693147 0.9999621 -0.008665956
vn -0.6954735 -0.005622375 -0.7185297
vn 0.6954735 0.005622375 0.7185297
vn 0.7185513 -0.00665158 -0.6954421
vn -0.7185513 0.00665158 0.6954421
vn 0.6954734 0.005622402 0.7185299
vn -0.6954734 -0.005622402 -0.7185299
vn -0.0008693337 -0.9999622 0.008665994
vn 0.0008693337 0.9999622 -0.008665994
vn 0.7185513 -0.00665158 -0.6954421
vn -0.7185513 0.00665158 0.6954421
vn 0.6954734 0.005622402 0.7185299
vn -0.6954734 -0.005622402 -0.7185299
vn -0.0008693337 -0.9999622 0.008665994
vn 0.0008693337 0.9999622 -0.008665994
vn 0.9743564 0.02194625 -0.2239374
vn -0.9743564 -0.02194625 0.2239374
vn -0.1029467 -0.84148 -0.5303899
vn 0.1029467 0.84148 0.5303899
vn -0.2000789 0.5398424 -0.8176421
vn 0.2000789 -0.5398424 0.8176421
usemtl mat15
f 4//1 3//1 2//1 1//1
f 3//2 6//2 5//2 2//2
f 6//3 8//3 7//3 5//3
f 8//4 10//4 9//4 7//4
f 10//5 12//5 11//5 9//5
f 12//6 14//6 13//6 11//6
f 14//7 16//7 15//7 13//7
f 16//8 18//8 17//8 15//8
f 18//9 20//9 19//9 17//9
f 20//10 22//10 21//10 19//10
f 22//11 24//11 23//11 21//11
f 24//12 4//12 1//12 23//12
f 26//13 25//13 21//13 23//13
f 24//14 22//14 20//14 18//14 16//14 14//14 12//14 10//14 8//14 6//14 3//14 4//14
f 25//15 27//15 19//15 21//15
f 27//16 28//16 17//16 19//16
f 28//17 29//17 15//17 17//17
f 29//18 30//18 13//18 15//18
f 30//19 31//19 11//19 13//19
f 31//20 32//20 9//20 11//20
f 32//21 33//21 7//21 9//21
f 33//22 34//22 5//22 7//22
f 34//23 35//23 2//23 5//23
f 35//24 36//24 1//24 2//24
f 36//25 26//25 23//25 1//25
f 38//26 37//26 25//26 26//26
f 37//27 39//27 27//27 25//27
f 39//28 40//28 28//28 27//28
f 40//29 41//29 29//29 28//29
f 41//30 42//30 30//30 29//30
f 42//31 43//31 31//31 30//31
f 43//32 44//32 32//32 31//32
f 44//33 45//33 33//33 32//33
f 45//34 46//34 34//34 33//34
f 46//35 47//35 35//35 34//35
f 47//36 48//36 36//36 35//36
f 48//37 38//37 26//37 36//37
f 50//38 49//38 37//38 38//38
f 49//39 51//39 39//39 37//39
f 51//40 52//40 40//40 39//40
f 52//41 53//41 41//41 40//41
f 53//42 54//42 42//42 41//42
f 54//43 55//43 43//43 42//43
f 55//44 56//44 44//44 43//44
f 56//45 57//45 45//45 44//45
f 57//46 58//46 46//46 45//46
f 58//47 59//47 47//47 46//47
f 59//48 60//48 48//48 47//48
f 60//49 50//49 38//49 48//49
f 62//50 61//50 49//50 50//50
f 61//51 63//51 51//51 49//51
f 63//52 64//52 52//52 51//52
f 64//53 65//53 53//53 52//53
f 65//54 66//54 54//54 53//54
f 66//55 67//55 55//55 54//55
f 67//56 68//56 56//56 55//56
f 68//57 69//57 57//57 56//57
f 69//58 70//58 58//58 57//58
f 70//59 71//59 59//59 58//59
f 71//60 72//60 60//60 59//60
f 72//61 62//61 50//61 60//61
f 74//62 73//62 61//62 62//62
f 73//63 75//63 63//63 61//63
f 75//64 76//64 64//64 63//64
f 76//65 77//65 65//65 64//65
f 77//66 78//66 66//66 65//66
f 78//67 79//67 67//67 66//67
f 79//68 80//68 68//68 67//68
f 80//69 81//69 69//69 68//69
f 81//70 82//70 70//70 69//70
f 82//71 83//71 71//71 70//71
f 83//72 84//72 72//72 71//72
f 84//73 74//73 62//73 72//73
f 86//74 85//74 73//74 74//74
f 85//75 87//75 75//75 73//75
f 87//76 88//76 76//76 75//76
f 88//77 89//77 77//77 76//77
f 89//78 90//78 78//78 77//78
f 90//79 91//79 79//79 78//79
f 91//80 92//80 80//80 79//80
f 92//81 93//81 81//81 80//81
f 93//82 94//82 82//82 81//82
f 94//83 95//83 83//83 82//83
f 95//84 96//84 84//84 83//84
f 96//85 86//85 74//85 84//85
f 96//86 95//86 94//86 93//86 92//86 91//86 90//86 89//86 88//86 87//86 85//86 86//86
f 122//99 121//99 117//99 119//99
f 124//100 123//100 99//100 100//100
f 123//101 125//101 102//101 99//101
f 125//102 126//102 104//102 102//102
f 126//103 127//103 106//103 104//103
f 127//104 128//104 108//104 106//104
f 128//105 129//105 110//105 108//105
f 129//106 130//106 112//106 110//106
f 130//107 131//107 114//107 112//107
f 131//108 132//108 116//108 114//108
f 132//109 133//109 118//109 116//109
f 133//110 134//110 120//110 118//110
f 134//111 124//111 100//111 120//111
f 136//112 135//112 123//112 124//112
f 135//113 137//113 125//113 123//113
f 137//114 138//114 126//114 125//114
f 138//115 139//115 127//115 126//115
f 139//116 140//116 128//116 127//116
f 140//117 141//117 129//117 128//117
f 141//118 142//118 130//118 129//118
f 142//119 143//119 131//119 130//119
f 143//120 144//120 132//120 131//120
f 144//121 145//121 133//121 132//121
f 145//122 146//122 134//122 133//122
f 146//123 136//123 124//123 134//123
f 146//124 145//124 144//124 143//124 142//124 141//124 140//124 139//124 138//124 137//124 135//124 136//124
f 121//125 147//125 115//125 117//125
f 147//126 148//126 113//126 115//126
f 148//127 149//127 111//127 113//127
f 149//128 150//128 109//128 111//128
f 150//129 151//129 107//129 109//129
f 151//130 152//130 105//130 107//130
f 152//131 153//131 103//131 105//131
f 153//132 154//132 101//132 103//132
f 154//133 155//133 98//133 101//133
f 155//134 156//134 97//134 98//134
f 156//135 122//135 119//135 97//135
f 156//136 155//136 154//136 153//136 152//136 151//136 150//136 149//136 148//136 147//136 121//136 122//136
f 160//137 159//137 158//137 157//137
f 164//138 163//138 162//138 161//138
f 158//139 164//139 161//139 157//139
f 162//140 163//140 159//140 160//140
f 161//141 162//141 160//141 157//141
f 159//142 163//142 164//142 158//142
f 168//143 167//143 166//143 165//143
f 172//144 171//144 170//144 169//144
f 166//145 172//145 169//145 165//145
f 170//146 171//146 167//146 168//146
f 169//147 170//147 168//147 165//147
f 167//148 171//148 172//148 166//148
f 176//149 175//149 174//149 173//149
f 180//150 179//150 178//150 177//150
f 174//151 180//151 177//151 173//151
f 178//152 179//152 175//152 176//152
f 177//153 178//153 176//153 173//153
f 175//154 179//154 180//154 174//154
f 184//155 183//155 182//155 181//155
f 188//156 187//156 186//156 185//156
f 182//157 188//157 185//157 181//157
f 186//158 187//158 183//158 184//158
f 185//159 186//159 184//159 181//159
f 183//160 187//160 188//160 182//160
f 192//161 191//161 190//161 189//161
f 196//162 195//162 194//162 193//162
f 190//163 196//163 193//163 189//163
f 194//164 195//164 191//164 192//164
f 193//165 194//165 192//165 189//165
f 191//166 195//166 196//166 190//166
f 200//167 199//167 198//167 197//167
f 204//168 203//168 202//168 201//168
f 198//169 204//169 201//169 197//169
f 202//170 203//170 199//170 200//170
f 201//171 202//171 200//171 197//171
f 199//172 203//172 204//172 198//172
f 208//173 207//173 206//173 205//173
f 212//174 211//174 210//174 209//174
f 206//175 212//175 209//175 205//175
f 210//176 211//176 207//176 208//176
f 209//177 210//177 208//177 205//177
f 207//178 211//178 212//178 206//178
f 216//179 215//179 214//179 213//179
f 220//180 219//180 218//180 217//180
f 214//181 220//181 217//181 213//181
f 218//182 219//182 215//182 216//182
f 217//183 218//183 216//183 213//183
f 215//184 219//184 220//184 214//184
f 224//185 223//185 222//185 221//185
f 228//186 227//186 226//186 225//186
f 222//187 228//187 225//187 221//187
f 226//188 227//188 223//188 224//188
f 225//189 226//189 224//189 221//189
f 223//190 227//190 228//190 222//190
f 232//191 231//191 230//191 229//191
f 236//192 235//192 234//192 233//192
f 230//193 236//193 233//193 229//193
f 234//194 235//194 231//194 232//194
f 233//195 234//195 232//195 229//195
f 231//196 235//196 236//196 230//196
f 240//197 239//197 238//197 237//197
f 244//198 243//198 242//198 241//198
f 238//199 244//199 241//199 237//199
f 242//200 243//200 239//200 240//200
f 241//201 242//201 240//201 237//201
f 239//202 243//202 244//202 238//202
f 248//203 247//203 246//203 245//203
f 252//204 251//204 250//204 249//204
f 246//205 252//205 249//205 245//205
f 250//206 251//206 247//206 248//206
f 249//207 250//207 248//207 245//207
f 247//208 251//208 252//208 246//208
usemtl mat4
f 100//87 99//87 98//87 97//87
f 99//88 102//88 101//88 98//88
f 102//89 104//89 103//89 101//89
f 104//90 106//90 105//90 103//90
f 106//91 108//91 107//91 105//91
f 108//92 110//92 109//92 107//92
f 110//93 112//93 111//93 109//93
f 112//94 114//94 113//94 111//94
f 114//95 116//95 115//95 113//95
f 116//96 118//96 117//96 115//96
f 118//97 120//97 119//97 117//97
f 120//98 100//98 97//98 119//98
