mtllib materials.mtl
v 0.001713455 -0.0652321 0.009308726
v -0.01915973 -0.06413609 0.01684403
v -0.02291089 -0.06306857 0.005869597
v -0.01041651 -0.06535453 0.02444145
v 0.0009759367 -0.06639743 0.0266262
v 0.0119651 -0.06698543 0.02281281
v 0.01960641 -0.06696093 0.01402307
v 0.02185234 -0.06633049 0.002612233
v 0.01810116 -0.06526303 -0.008362234
v 0.009357989 -0.06404465 -0.01595968
v -0.002034485 -0.06300169 -0.01814434
v -0.01302364 -0.06241369 -0.01433095
v -0.02066499 -0.06243819 -0.005541265
v -0.09000003 -0.08999997 -2.980232E-08
v -0.07794231 -0.08999997 0.04499996
v -0.04500002 -0.09000003 0.07794225
v -2.980232E-08 -0.09000003 0.08999997
v 0.04499996 -0.09000003 0.07794228
v 0.07794225 -0.09000003 0.04499999
v 0.08999997 -0.09000003 0
v 0.07794225 -0.09000003 -0.04500002
v 0.04499999 -0.08999997 -0.0779423
v 0 -0.08999997 -0.09
v -0.04500002 -0.08999997 -0.07794231
v -0.07794231 -0.08999997 -0.04500002
v -0.02241915 -0.05664134 -0.03661752
v 8.08835E-05 -0.05664134 -0.04264638
v -0.0388903 -0.05664134 -0.0201464
v -0.04491913 -0.05664128 0.002353609
v -0.0388903 -0.05664134 0.02485362
v -0.02241912 -0.05664134 0.04132473
v 8.08537E-05 -0.05664134 0.04735363
v 0.02258086 -0.05664134 0.04132476
v 0.03905201 -0.05664134 0.02485362
v 0.04508084 -0.05664134 0.002353638
v 0.03905198 -0.05664134 -0.02014637
v 0.02258086 -0.05664134 -0.03661752
vn 0.0775714 0.9945106 0.07022414
vn 0.07757142 0.9945106 0.07022423
vn 0.07757296 0.9945104 0.070226
vn 0.07758315 0.9945095 0.07022631
vn 0.07758825 0.9945093 0.07022328
vn 0.07758967 0.9945096 0.07021829
vn 0.0775881 0.9945101 0.0702122
vn 0.0775812 0.9945111 0.07020652
vn 0.07758293 0.9945109 0.07020686
vn 0.07757638 0.9945114 0.07020772
vn 0.07757281 0.9945115 0.07020985
vn 0.07757377 0.9945115 0.07020868
vn -1.748455E-07 -1 -1.848165E-07
vn -0.1524625 0.8080814 -0.5689988
vn -0.4199618 0.8045272 -0.4199621
vn -0.5822688 0.7978855 -0.1560189
vn -0.5926259 0.7896702 0.1587941
vn -0.4406859 0.7820432 0.4406864
vn -0.1628334 0.7772927 0.6077017
vn 0.1629332 0.7769797 0.6080751
vn 0.4414236 0.7812108 0.4414237
vn 0.5939729 0.7885849 0.1591545
vn 0.5835823 0.7968563 -0.1563704
vn 0.4206509 0.8038071 -0.4206505
vn 0.1525542 0.8078245 -0.569339
vn 0.08675534 0.9675325 0.237391
vn 0.1778828 0.9691268 0.1707364
vn 0.2564084 0.963213 0.08047102
vn 0.3099894 0.9488255 -0.06030674
vn 0.2803036 0.9276723 -0.2466863
vn 0.1254062 0.9068672 -0.4023249
vn -0.1109978 0.895415 -0.4311746
vn -0.319737 0.897302 -0.3043309
vn -0.4063154 0.9100255 -0.08222876
vn -0.3819819 0.9184846 0.1023518
vn -0.2468138 0.9371052 0.2468133
vn -0.0781433 0.9533325 0.2916346
vn 0.03970547 0.9663182 0.254269
vn -0.1056631 0.9556624 0.2748542
vn -0.2816091 0.9409751 0.1877827
vt -0.002122136 -0.0587378
vt -0.002020655 -0.06095735
vt -0.0008579397 -0.06088965
vt -0.002122125 -0.0587378
vt -0.003061434 -0.06043462
vt -0.002020644 -0.06095735
vt -0.002121841 -0.05873787
vt -0.003701137 -0.05946161
vt -0.003061147 -0.0604347
vt -0.002121312 -0.05873876
vt -0.003768311 -0.05829978
vt -0.003700607 -0.0594625
vt -0.002121421 -0.05873932
vt -0.003245693 -0.05725954
vt -0.00376842 -0.05830033
vt -0.002121935 -0.05873961
vt -0.002273111 -0.05661985
vt -0.003246203 -0.05725984
vt -0.002122723 -0.05873968
vt -0.001111174 -0.05655223
vt -0.002273893 -0.05661992
vt -0.002123721 -0.05873927
vt -7.137639E-05 -0.05707456
vt -0.001112163 -0.05655183
vt -0.002123595 -0.05873942
vt 0.0005687238 -0.05804779
vt -7.125176E-05 -0.0570747
vt -0.00212381 -0.05873881
vt 0.0006362021 -0.05920991
vt 0.0005685098 -0.05804719
vt -0.002123733 -0.05873842
vt 0.0001135486 -0.0602503
vt 0.0006362795 -0.05920951
vt -0.002123825 -0.05873855
vt -0.0008596437 -0.06089041
vt 0.0001134561 -0.06025044
vt 0.009747829 -0.06215966
vt 0.01439121 -0.06253766
vt 0.0186015 -0.06054331
vt 0.02125053 -0.05671101
vt 0.02162853 -0.05206763
vt 0.01963418 -0.04785735
vt 0.01580189 -0.04520831
vt 0.0111585 -0.04483032
vt 0.006948224 -0.04682466
vt 0.004299185 -0.05065696
vt 0.003921193 -0.05530034
vt 0.005915537 -0.05951063
vt -0.07754317 -0.0384083
vt -0.072235 -0.04067276
vt -0.07126659 -0.03611578
vt -0.07705896 -0.03612981
vt -0.06870185 -0.01977499
vt -0.06465047 -0.0237927
vt -0.06200326 -0.01995914
vt -0.06737824 -0.01785821
vt -0.0496891 0.0001810265
vt -0.04762914 -0.005040358
vt -0.04364275 -0.002629427
vt -0.0476959 0.001386487
vt -0.01954738 0.0134258
vt -0.02007114 0.007933717
vt -0.01542559 0.008284024
vt -0.01722461 0.01360096
vt 0.01517387 0.009785945
vt 0.0121553 0.005255635
vt 0.01643826 0.003422565
vt 0.01731534 0.008869405
vt 0.043049 -0.009285171
vt 0.03837081 -0.01201093
vt 0.04148242 -0.01547818
vt 0.0446048 -0.01101879
vt 0.05927704 -0.03321845
vt 0.05387915 -0.03387066
vt 0.0554597 -0.03825309
vt 0.06006731 -0.03540967
vt 0.06377932 -0.05589064
vt 0.05850033 -0.0543275
vt 0.05829188 -0.05898157
vt 0.06367511 -0.05821769
vt 0.0508913 -0.07956583
vt 0.04704696 -0.07549376
vt 0.04455915 -0.07943262
vt 0.0496474 -0.08153526
vt -0.0006665033 -0.09857463
vt -0.0001576231 -0.09290271
vt -0.004758452 -0.09363503
vt -0.002966918 -0.09894079
vt -0.05885302 -0.07931413
vt -0.05400662 -0.0761926
vt -0.05736879 -0.07296775
vt -0.0605341 -0.0777017
vt -0.07698275 -0.05592299
vt -0.07119039 -0.05590602
vt -0.07219575 -0.05135705
vt -0.07748543 -0.05364851
vt 0.0202054 -0.05258694
vt 0.02268628 -0.05242754
vt 0.02223012 -0.05014386
vt 0.02004299 -0.05143481
vt 0.01740614 -0.06425815
vt 0.01959664 -0.06525432
vt 0.02032993 -0.06304341
vt 0.01784719 -0.06318027
vt 0.01036381 -0.07501961
vt 0.01170031 -0.07691525
vt 0.01346168 -0.07539115
vt 0.01130203 -0.07433002
vt -0.006417946 -0.08383279
vt -0.006404986 -0.08608964
vt -0.004093505 -0.08580608
vt -0.005254882 -0.08379886
vt -0.03616757 -0.08152539
vt -0.03762684 -0.08323353
vt -0.03564559 -0.08445729
vt -0.03524649 -0.08223605
vt -0.06104303 -0.0639249
vt -0.06330002 -0.06432556
vt -0.06245125 -0.06649444
vt -0.06073279 -0.0650468
vt -0.06702382 -0.04350711
vt -0.0692354 -0.04265114
vt -0.06955319 -0.0449587
vt -0.06728248 -0.04464266
vt -0.05757099 -0.02522344
vt -0.05922765 -0.02341399
vt -0.06050143 -0.02536407
vt -0.05826667 -0.0261572
vt -0.03688519 -0.01259111
vt -0.0376118 -0.01018206
vt -0.03960439 -0.01138703
vt -0.03790317 -0.01315381
vt -0.01568892 -0.00689782
vt -0.018012 -0.00706891
vt -0.01725738 -0.009470085
vt 0.00650823 -0.01650811
vt 0.004363145 -0.01560005
vt 0.003997137 -0.01812738
vt 0.01985315 -0.03290408
vt 0.01836354 -0.03111326
vt 0.01695326 -0.03325222
vt 0.01868527 -0.04570453
vt 0.01939341 -0.04662921
vt 0.0215834 -0.04534207
vt 0.01285854 -0.0310122
vt 0.01392197 -0.03148717
vt 0.01534658 -0.02935774
vt -0.004684776 -0.01709128
vt -0.003521642 -0.01703114
vt -0.003136854 -0.0145066
o group1674032168
g mesh1674032168
usemtl mat23
f 3/3/1 2/2/1 1/1/1
f 2/6/2 4/5/2 1/4/2
f 4/9/3 5/8/3 1/7/3
f 5/12/4 6/11/4 1/10/4
f 6/15/5 7/14/5 1/13/5
f 7/18/6 8/17/6 1/16/6
f 8/21/7 9/20/7 1/19/7
f 9/24/8 10/23/8 1/22/8
f 10/27/9 11/26/9 1/25/9
f 11/30/10 12/29/10 1/28/10
f 12/33/11 13/32/11 1/31/11
f 13/36/12 3/35/12 1/34/12
f 25/48/13 24/47/13 23/46/13 22/45/13 21/44/13 20/43/13 19/42/13 18/41/13 17/40/13 16/39/13 15/38/13 14/37/13
f 27/52/14 23/51/14 24/50/14 26/49/14
f 26/56/15 24/55/15 25/54/15 28/53/15
f 28/60/16 25/59/16 14/58/16 29/57/16
f 29/64/17 14/63/17 15/62/17 30/61/17
f 30/68/18 15/67/18 16/66/18 31/65/18
f 31/72/19 16/71/19 17/70/19 32/69/19
f 32/76/20 17/75/20 18/74/20 33/73/20
f 33/80/21 18/79/21 19/78/21 34/77/21
f 34/84/22 19/83/22 20/82/22 35/81/22
f 35/88/23 20/87/23 21/86/23 36/85/23
f 36/92/24 21/91/24 22/90/24 37/89/24
f 37/96/25 22/95/25 23/94/25 27/93/25
f 11/100/26 27/99/26 26/98/26 12/97/26
f 12/104/27 26/103/27 28/102/27 13/101/27
f 13/108/28 28/107/28 29/106/28 3/105/28
f 3/112/29 29/111/29 30/110/29 2/109/29
f 2/116/30 30/115/30 31/114/30 4/113/30
f 4/120/31 31/119/31 32/118/31 5/117/31
f 5/124/32 32/123/32 33/122/32 6/121/32
f 6/128/33 33/127/33 34/126/33 7/125/33
f 7/132/34 34/131/34 35/130/34 8/129/34
f 8/135/35 35/134/35 36/133/35
f 9/138/36 36/137/36 37/136/36
f 10/141/37 37/140/37 27/139/37
f 27/144/38 11/143/38 10/142/38
f 37/147/39 10/146/39 9/145/39
f 36/150/40 9/149/40 8/148/40
